<?xml version="1.0" encoding="UTF-8"?>
<svg xmlns="http://www.w3.org/2000/svg" xmlns:xlink="http://www.w3.org/1999/xlink" viewBox="0 0 480 480" width="480px" height="480px">
<g id="surface4067087">
<rect x="0" y="0" width="480" height="480" style="fill:rgb(100%,83.92157%,0%);fill-opacity:1;stroke:none;"/>
<path style=" stroke:none;fill-rule:nonzero;fill:rgb(0%,0%,0.392157%);fill-opacity:1;" d="M 317.53125 365.257812 C 327.21875 380.992188 337.746094 396.070312 360.050781 396.070312 C 378.78125 396.070312 388.609375 386.761719 388.609375 373.882812 C 388.609375 358.46875 378.445312 352.992188 357.839844 344.019531 L 346.539062 339.203125 C 313.933594 325.371094 292.246094 308.039062 292.246094 271.429688 C 292.246094 237.691406 318.078125 212.015625 358.441406 212.015625 C 387.183594 212.015625 407.832031 221.96875 422.726562 248.035156 L 387.53125 270.535156 C 379.789062 256.703125 371.417969 251.257812 358.441406 251.257812 C 345.195312 251.257812 336.808594 259.613281 336.808594 270.535156 C 336.808594 284.03125 345.210938 289.488281 364.601562 297.847656 L 375.898438 302.664062 C 414.328125 319.03125 436 335.746094 436 373.320312 C 436 413.808594 404.023438 436 361.101562 436 C 319.113281 436 295.273438 414.929688 282 388.847656 Z M 155.328125 366.40625 C 162.410156 379.089844 173.179688 388.847656 188.660156 388.847656 C 203.472656 388.847656 212 382.996094 212 360.246094 L 212 212 L 258.660156 212 L 258.660156 367.414062 C 258.660156 414.550781 231.320312 436 191.390625 436 C 155.3125 436 129.273438 411.554688 118.660156 388.847656 Z M 155.328125 366.40625 "/>
</g>
</svg>
