<?xml version="1.0" encoding="UTF-8"?>
<svg xmlns="http://www.w3.org/2000/svg" xmlns:xlink="http://www.w3.org/1999/xlink" viewBox="0 0 480 480" width="480px" height="480px">
<g id="surface4072037">
<path style=" stroke:none;fill-rule:nonzero;fill:rgb(100%,100%,100%);fill-opacity:1;" d="M 240 480 C 107.453125 480 0 372.546875 0 240 C 0 107.453125 107.453125 0 240 0 C 372.546875 0 480 107.453125 480 240 C 480 372.546875 372.546875 480 240 480 Z M 240 480 "/>
<path style=" stroke:none;fill-rule:nonzero;fill:rgb(0%,47.450981%,41.960785%);fill-opacity:1;" d="M 40.015625 332.011719 L 56.015625 332.011719 L 56.015625 272.96875 L 78.242188 323.441406 C 80.980469 329.734375 84.730469 331.960938 92.089844 331.960938 C 99.449219 331.960938 103.050781 329.734375 105.789062 323.441406 L 128.015625 274.257812 L 128.015625 332.011719 L 144.015625 332.011719 L 144.015625 271.527344 C 144.015625 265.71875 141.707031 262.902344 136.941406 261.449219 C 125.550781 257.867188 117.898438 260.960938 114.441406 268.71875 L 91.648438 320.050781 L 69.574219 268.71875 C 66.257812 260.96875 58.472656 257.867188 47.074219 261.449219 C 42.308594 262.902344 40 265.710938 40 271.519531 L 40 332 L 40.015625 332 Z M 40.015625 332.011719 "/>
<path style=" stroke:none;fill-rule:nonzero;fill:rgb(0%,47.450981%,41.960785%);fill-opacity:1;" d="M 152.007812 284.007812 L 168.007812 284.007812 L 168.007812 317.800781 C 167.882812 319.46875 168.542969 323.894531 176.257812 324.011719 C 180.191406 324.078125 199.765625 324.011719 200.007812 324.011719 L 200.007812 284.007812 L 216.007812 284.007812 C 216.074219 284.007812 216.007812 333.742188 216.007812 333.953125 C 216.089844 346.21875 200.773438 347.800781 193.734375 348.011719 L 152.015625 348.011719 L 152.015625 340.011719 C 152.097656 340.011719 191.90625 340.019531 192.023438 340.011719 C 201.089844 339.050781 200.015625 334.058594 200.015625 332.542969 L 200.015625 332.011719 L 174.917969 332.011719 C 161 331.886719 152.125 325.75 152.023438 318.761719 C 152.007812 318.109375 152.324219 284.308594 152.007812 284.007812 Z M 152.007812 284.007812 "/>
<path style=" stroke:none;fill-rule:nonzero;fill:rgb(96.078432%,49.803922%,9.019608%);fill-opacity:1;" d="M 224.007812 332.011719 L 264.066406 332.011719 C 269.316406 332.011719 274.417969 330.910156 278.46875 329.011719 C 285.21875 325.910156 288 321.71875 288 316.210938 L 288 304.808594 C 288 292.507812 272.75 292.007812 264 292.007812 L 248 292.007812 C 241.707031 292.007812 240.75 288.210938 240 284.007812 L 240 276.007812 C 240.75 272.808594 242.148438 268.507812 247.691406 268.007812 C 254.132812 268.007812 287.992188 268.007812 287.992188 268.007812 L 287.992188 260.007812 L 249.941406 260.007812 C 243.648438 260.007812 223.992188 260.757812 223.992188 276.007812 L 223.992188 285.902344 C 223.992188 292.902344 230.140625 298.601562 243.492188 300 C 244.992188 300.101562 246.492188 300.203125 247.984375 300.203125 C 247.984375 300.203125 263.535156 299.902344 263.984375 300 C 272.984375 300 271.984375 307 271.984375 308 L 271.984375 316 C 271.984375 317.101562 271.734375 324 263.890625 324 C 263.292969 324 223.984375 324 223.984375 324 L 223.984375 332.011719 Z M 224.007812 332.011719 "/>
<path style=" stroke:none;fill-rule:nonzero;fill:rgb(96.078432%,49.803922%,9.019608%);fill-opacity:1;" d="M 376 315.667969 C 376 325.328125 381.460938 330.742188 395.933594 331.828125 C 397.285156 331.917969 398.644531 332 400 332 L 440 332 L 440 324 L 403.042969 324 C 394.785156 324 392 320.535156 392 315.578125 L 392 260 L 376 260 Z M 376 315.667969 "/>
<path style=" stroke:none;fill-rule:nonzero;fill:rgb(96.078432%,49.803922%,9.019608%);fill-opacity:1;" d="M 295.867188 316.007812 L 295.867188 276.007812 C 295.867188 267.507812 300.035156 261.644531 311.832031 260.007812 L 350.535156 260.007812 C 362.335938 261.644531 367.867188 267.5 367.867188 276.007812 L 367.867188 315.859375 C 367.867188 322.75 366.074219 326.453125 360.234375 328.851562 L 372.632812 340 L 354.632812 340 L 345.71875 332 L 335.242188 332 L 317.441406 332.101562 C 314.867188 332.101562 312.152344 331.742188 309.167969 330.925781 C 300.21875 328.484375 295.867188 323.785156 295.867188 316.007812 Z M 311.867188 316.007812 C 312.683594 319.902344 315.808594 324.011719 321.367188 324.011719 L 336.902344 324.011719 L 328 316.007812 L 346.125 316.007812 L 350.449219 320.027344 C 350.449219 320.027344 352 318.761719 352 316.007812 C 352 313.257812 351.867188 276.007812 351.867188 276.007812 C 351.050781 272.394531 347.382812 268.007812 341.96875 268.007812 L 321.375 268.007812 C 315.132812 268.007812 311.875 272.574219 311.875 276.824219 Z M 311.867188 316.007812 "/>
<path style=" stroke:none;fill-rule:nonzero;fill:rgb(0%,47.450981%,41.960785%);fill-opacity:1;" d="M 424.992188 251.574219 C 416.402344 251.34375 409.84375 252.144531 404.234375 254.5 C 402.644531 255.175781 400.101562 255.191406 399.835938 257.191406 C 400.710938 258.109375 400.84375 259.484375 401.542969 260.609375 C 402.875 262.777344 405.144531 265.683594 407.160156 267.199219 C 409.367188 268.867188 411.644531 270.652344 414 272.09375 C 418.203125 274.652344 422.894531 276.117188 426.941406 278.683594 C 429.328125 280.191406 431.691406 282.109375 434.027344 283.808594 C 435.175781 284.660156 435.941406 285.96875 437.441406 286.5 C 437.441406 286.417969 437.441406 286.34375 437.441406 286.257812 C 436.660156 285.257812 436.453125 283.882812 435.734375 282.835938 C 434.675781 281.777344 433.617188 280.71875 432.558594 279.660156 C 429.460938 275.542969 425.507812 271.917969 421.328125 268.917969 C 417.984375 266.519531 410.507812 263.277344 409.109375 259.394531 C 409.027344 259.308594 408.949219 259.234375 408.859375 259.144531 C 411.226562 258.875 414 258.019531 416.183594 257.433594 C 419.859375 256.449219 423.132812 256.710938 426.925781 255.726562 C 428.632812 255.234375 430.34375 254.75 432.050781 254.257812 C 432.050781 253.933594 432.050781 253.609375 432.050781 253.285156 C 430.132812 251.316406 428.757812 248.71875 426.675781 246.933594 C 421.203125 242.277344 415.234375 237.625 409.09375 233.742188 C 405.683594 231.59375 401.46875 230.191406 397.859375 228.367188 C 396.644531 227.75 394.507812 227.433594 393.710938 226.417969 C 391.808594 224 390.785156 220.925781 389.316406 218.117188 C 386.25 212.21875 383.234375 205.765625 380.527344 199.558594 C 378.667969 195.324219 377.460938 191.140625 375.152344 187.34375 C 364.058594 169.109375 352.117188 158.101562 333.632812 147.285156 C 329.699219 144.984375 324.957031 144.074219 319.949219 142.882812 C 317.257812 142.726562 314.574219 142.558594 311.882812 142.390625 C 310.242188 141.699219 308.542969 139.699219 306.992188 138.726562 C 300.867188 134.851562 285.148438 126.433594 280.617188 137.5 C 277.75 144.484375 284.898438 151.300781 287.457031 154.84375 C 289.25 157.324219 291.550781 160.109375 292.832031 162.910156 C 293.675781 164.742188 293.824219 166.582031 294.542969 168.523438 C 296.316406 173.308594 299.125 178.757812 301.425781 183.183594 C 302.582031 185.425781 303.867188 187.777344 305.332031 189.777344 C 306.234375 191 307.777344 191.542969 308.027344 193.441406 C 306.515625 195.550781 306.433594 198.824219 305.582031 201.507812 C 301.765625 213.550781 303.207031 228.507812 308.757812 237.410156 C 310.457031 240.140625 314.476562 246.007812 319.992188 243.757812 C 324.816406 241.792969 323.742188 235.699219 325.117188 230.324219 C 325.425781 229.109375 325.234375 228.21875 325.851562 227.402344 C 325.851562 227.484375 325.851562 227.558594 325.851562 227.652344 C 327.316406 230.574219 328.777344 233.515625 330.25 236.441406 C 333.507812 241.683594 339.285156 247.160156 344.167969 250.859375 C 346.699219 252.777344 348.699219 256.09375 351.984375 257.210938 C 351.984375 257.125 351.984375 257.050781 351.984375 256.960938 C 351.902344 256.960938 351.824219 256.960938 351.734375 256.960938 C 351.101562 255.96875 350.101562 255.558594 349.292969 254.757812 C 347.382812 252.882812 345.25 250.558594 343.675781 248.410156 C 339.226562 242.367188 335.292969 235.75 331.707031 228.867188 C 330 225.574219 328.507812 221.960938 327.066406 218.609375 C 326.507812 217.316406 326.515625 215.367188 325.359375 214.699219 C 323.777344 217.152344 321.457031 219.132812 320.234375 222.027344 C 318.285156 226.652344 318.027344 232.300781 317.308594 238.140625 C 316.875 238.292969 317.066406 238.191406 316.816406 238.382812 C 313.417969 237.558594 312.21875 234.066406 310.949219 231.058594 C 307.75 223.460938 307.160156 211.226562 309.976562 202.484375 C 310.699219 200.21875 313.992188 193.09375 312.667969 191 C 312.035156 188.910156 309.933594 187.699219 308.765625 186.109375 C 307.308594 184.140625 305.867188 181.542969 304.859375 179.265625 C 302.242188 173.34375 299.757812 166.449219 297 160.457031 C 295.683594 157.59375 293.457031 154.699219 291.625 152.160156 C 289.601562 149.34375 287.324219 147.265625 285.757812 143.859375 C 285.199219 142.648438 284.441406 140.707031 285.265625 139.457031 C 285.535156 138.617188 285.898438 138.265625 286.734375 137.992188 C 288.148438 136.890625 292.09375 138.351562 293.574219 138.964844 C 297.492188 140.589844 300.757812 142.140625 304.074219 144.34375 C 305.667969 145.398438 307.273438 147.441406 309.199219 148.007812 C 309.933594 148.007812 310.667969 148.007812 311.402344 148.007812 C 314.84375 148.800781 318.691406 148.257812 321.902344 149.234375 C 327.582031 150.957031 332.667969 153.640625 337.285156 156.558594 C 351.367188 165.449219 362.875 178.101562 370.75 193.199219 C 372.015625 195.632812 372.566406 197.949219 373.675781 200.527344 C 375.925781 205.726562 378.765625 211.074219 381 216.160156 C 383.234375 221.234375 385.417969 226.351562 388.574219 230.574219 C 390.242188 232.792969 396.660156 233.984375 399.566406 235.21875 C 401.609375 236.085938 404.960938 236.976562 406.894531 238.140625 C 410.59375 240.375 414.175781 243.035156 417.632812 245.46875 C 419.402344 246.691406 424.726562 249.367188 424.992188 251.574219 Z M 424.992188 251.574219 "/>
<path style=" stroke:none;fill-rule:nonzero;fill:rgb(0%,47.450981%,41.960785%);fill-opacity:1;" d="M 315.816406 158.523438 C 314.027344 158.492188 312.757812 158.71875 311.417969 159.015625 C 311.417969 159.101562 311.417969 159.175781 311.417969 159.265625 C 311.5 159.265625 311.574219 159.265625 311.667969 159.265625 C 312.527344 161.015625 314.027344 162.160156 315.082031 163.667969 C 315.902344 165.375 316.707031 167.082031 317.527344 168.792969 C 317.609375 168.707031 317.683594 168.632812 317.765625 168.550781 C 319.277344 167.484375 319.976562 165.785156 319.96875 163.175781 C 319.359375 162.535156 319.265625 161.734375 318.742188 160.976562 C 318.042969 159.949219 316.691406 159.375 315.816406 158.523438 Z M 315.816406 158.523438 "/>
</g>
</svg>
